<mxfile host="65bd71144e">
    <diagram id="y81J2vsQ6q_i72oybPg3" name="ducks">
        <mxGraphModel dx="2153" dy="953" grid="1" gridSize="10" guides="1" tooltips="1" connect="1" arrows="1" fold="1" page="1" pageScale="1" pageWidth="850" pageHeight="1100" math="0" shadow="0">
            <root>
                <mxCell id="0"/>
                <mxCell id="1" parent="0"/>
                <mxCell id="2" value="&lt;b&gt;Duck&lt;/b&gt;&lt;br&gt;{abstract}" style="swimlane;fontStyle=0;align=center;verticalAlign=top;childLayout=stackLayout;horizontal=1;startSize=55;horizontalStack=0;resizeParent=1;resizeParentMax=0;resizeLast=0;collapsible=0;marginBottom=0;html=1;" parent="1" vertex="1">
                    <mxGeometry x="120" y="160" width="240" height="250" as="geometry"/>
                </mxCell>
                <mxCell id="3" value="attributes" style="text;html=1;strokeColor=none;fillColor=none;align=center;verticalAlign=middle;spacingLeft=4;spacingRight=4;overflow=hidden;rotatable=0;points=[[0,0.5],[1,0.5]];portConstraint=eastwest;" parent="2" vertex="1">
                    <mxGeometry y="55" width="240" height="20" as="geometry"/>
                </mxCell>
                <mxCell id="4" value="QuackBehavior quack_behavior" style="text;html=1;strokeColor=none;fillColor=none;align=left;verticalAlign=middle;spacingLeft=4;spacingRight=4;overflow=hidden;rotatable=0;points=[[0,0.5],[1,0.5]];portConstraint=eastwest;" parent="2" vertex="1">
                    <mxGeometry y="75" width="240" height="20" as="geometry"/>
                </mxCell>
                <mxCell id="6" value="FlyBehavior fly_behavior" style="text;html=1;strokeColor=none;fillColor=none;align=left;verticalAlign=middle;spacingLeft=4;spacingRight=4;overflow=hidden;rotatable=0;points=[[0,0.5],[1,0.5]];portConstraint=eastwest;" parent="2" vertex="1">
                    <mxGeometry y="95" width="240" height="20" as="geometry"/>
                </mxCell>
                <mxCell id="7" value="" style="line;strokeWidth=1;fillColor=none;align=left;verticalAlign=middle;spacingTop=-1;spacingLeft=3;spacingRight=3;rotatable=0;labelPosition=right;points=[];portConstraint=eastwest;" parent="2" vertex="1">
                    <mxGeometry y="115" width="240" height="8" as="geometry"/>
                </mxCell>
                <mxCell id="8" value="methods" style="text;html=1;strokeColor=none;fillColor=none;align=center;verticalAlign=middle;spacingLeft=4;spacingRight=4;overflow=hidden;rotatable=0;points=[[0,0.5],[1,0.5]];portConstraint=eastwest;" parent="2" vertex="1">
                    <mxGeometry y="123" width="240" height="20" as="geometry"/>
                </mxCell>
                <mxCell id="9" value="display() {abstract}&lt;br&gt;swim()&lt;br&gt;performFly()&lt;br&gt;performQuack()&lt;br&gt;setFlyBehavior()&lt;br&gt;setQuackBehavior()&lt;br&gt;" style="text;html=1;strokeColor=none;fillColor=none;align=left;verticalAlign=middle;spacingLeft=4;spacingRight=4;overflow=hidden;rotatable=0;points=[[0,0.5],[1,0.5]];portConstraint=eastwest;" parent="2" vertex="1">
                    <mxGeometry y="143" width="240" height="107" as="geometry"/>
                </mxCell>
                <mxCell id="16" style="edgeStyle=none;html=1;entryX=0.499;entryY=1.017;entryDx=0;entryDy=0;entryPerimeter=0;exitX=0.5;exitY=0;exitDx=0;exitDy=0;shape=arrow;" parent="1" source="13" target="9" edge="1">
                    <mxGeometry relative="1" as="geometry"/>
                </mxCell>
                <mxCell id="13" value="WildDuck" style="swimlane;fontStyle=1;align=center;verticalAlign=middle;childLayout=stackLayout;horizontal=1;startSize=29;horizontalStack=0;resizeParent=1;resizeParentMax=0;resizeLast=0;collapsible=0;marginBottom=0;html=1;" parent="1" vertex="1">
                    <mxGeometry x="20" y="560" width="140" height="79" as="geometry"/>
                </mxCell>
                <mxCell id="14" value="methods" style="text;html=1;strokeColor=none;fillColor=none;align=center;verticalAlign=middle;spacingLeft=4;spacingRight=4;overflow=hidden;rotatable=0;points=[[0,0.5],[1,0.5]];portConstraint=eastwest;" parent="13" vertex="1">
                    <mxGeometry y="29" width="140" height="25" as="geometry"/>
                </mxCell>
                <mxCell id="15" value="display() {concrete}" style="text;html=1;strokeColor=none;fillColor=none;align=left;verticalAlign=middle;spacingLeft=4;spacingRight=4;overflow=hidden;rotatable=0;points=[[0,0.5],[1,0.5]];portConstraint=eastwest;" parent="13" vertex="1">
                    <mxGeometry y="54" width="140" height="25" as="geometry"/>
                </mxCell>
                <mxCell id="18" value="ModelDuck" style="swimlane;fontStyle=1;align=center;verticalAlign=middle;childLayout=stackLayout;horizontal=1;startSize=29;horizontalStack=0;resizeParent=1;resizeParentMax=0;resizeLast=0;collapsible=0;marginBottom=0;html=1;" parent="1" vertex="1">
                    <mxGeometry x="170" y="560" width="140" height="79" as="geometry"/>
                </mxCell>
                <mxCell id="19" value="methods" style="text;html=1;strokeColor=none;fillColor=none;align=center;verticalAlign=middle;spacingLeft=4;spacingRight=4;overflow=hidden;rotatable=0;points=[[0,0.5],[1,0.5]];portConstraint=eastwest;" parent="18" vertex="1">
                    <mxGeometry y="29" width="140" height="25" as="geometry"/>
                </mxCell>
                <mxCell id="20" value="display() {concrete}" style="text;html=1;strokeColor=none;fillColor=none;align=left;verticalAlign=middle;spacingLeft=4;spacingRight=4;overflow=hidden;rotatable=0;points=[[0,0.5],[1,0.5]];portConstraint=eastwest;" parent="18" vertex="1">
                    <mxGeometry y="54" width="140" height="25" as="geometry"/>
                </mxCell>
                <mxCell id="21" value="RubberDuck" style="swimlane;fontStyle=1;align=center;verticalAlign=middle;childLayout=stackLayout;horizontal=1;startSize=29;horizontalStack=0;resizeParent=1;resizeParentMax=0;resizeLast=0;collapsible=0;marginBottom=0;html=1;" parent="1" vertex="1">
                    <mxGeometry x="320" y="560" width="140" height="79" as="geometry"/>
                </mxCell>
                <mxCell id="22" value="methods" style="text;html=1;strokeColor=none;fillColor=none;align=center;verticalAlign=middle;spacingLeft=4;spacingRight=4;overflow=hidden;rotatable=0;points=[[0,0.5],[1,0.5]];portConstraint=eastwest;" parent="21" vertex="1">
                    <mxGeometry y="29" width="140" height="25" as="geometry"/>
                </mxCell>
                <mxCell id="23" value="display() {concrete}" style="text;html=1;strokeColor=none;fillColor=none;align=left;verticalAlign=middle;spacingLeft=4;spacingRight=4;overflow=hidden;rotatable=0;points=[[0,0.5],[1,0.5]];portConstraint=eastwest;" parent="21" vertex="1">
                    <mxGeometry y="54" width="140" height="25" as="geometry"/>
                </mxCell>
                <mxCell id="24" style="edgeStyle=none;html=1;exitX=0.5;exitY=0;exitDx=0;exitDy=0;shape=arrow;" parent="1" source="18" edge="1">
                    <mxGeometry relative="1" as="geometry">
                        <mxPoint x="120" y="570" as="sourcePoint"/>
                        <mxPoint x="240" y="410" as="targetPoint"/>
                    </mxGeometry>
                </mxCell>
                <mxCell id="25" style="edgeStyle=none;html=1;entryX=0.508;entryY=1.027;entryDx=0;entryDy=0;entryPerimeter=0;exitX=0.5;exitY=0;exitDx=0;exitDy=0;shape=arrow;" parent="1" source="21" target="9" edge="1">
                    <mxGeometry relative="1" as="geometry">
                        <mxPoint x="100" y="570" as="sourcePoint"/>
                        <mxPoint x="249.76" y="421.81899999999996" as="targetPoint"/>
                    </mxGeometry>
                </mxCell>
                <mxCell id="38" value="" style="edgeStyle=none;shape=arrow;html=1;entryX=0.463;entryY=0.993;entryDx=0;entryDy=0;exitX=0.5;exitY=0;exitDx=0;exitDy=0;entryPerimeter=0;" parent="1" source="35" target="28" edge="1">
                    <mxGeometry relative="1" as="geometry"/>
                </mxCell>
                <mxCell id="26" value="FlyBehavior" style="swimlane;fontStyle=1;align=center;verticalAlign=middle;childLayout=stackLayout;horizontal=1;startSize=29;horizontalStack=0;resizeParent=1;resizeParentMax=0;resizeLast=0;collapsible=0;marginBottom=0;html=1;" parent="1" vertex="1">
                    <mxGeometry x="630" y="400" width="140" height="79" as="geometry"/>
                </mxCell>
                <mxCell id="27" value="interface" style="text;html=1;strokeColor=none;fillColor=none;align=center;verticalAlign=middle;spacingLeft=4;spacingRight=4;overflow=hidden;rotatable=0;points=[[0,0.5],[1,0.5]];portConstraint=eastwest;" parent="26" vertex="1">
                    <mxGeometry y="29" width="140" height="25" as="geometry"/>
                </mxCell>
                <mxCell id="28" value="fly() {abstract}" style="text;html=1;strokeColor=none;fillColor=none;align=left;verticalAlign=middle;spacingLeft=4;spacingRight=4;overflow=hidden;rotatable=0;points=[[0,0.5],[1,0.5]];portConstraint=eastwest;" parent="26" vertex="1">
                    <mxGeometry y="54" width="140" height="25" as="geometry"/>
                </mxCell>
                <mxCell id="32" value="FlyWithWings" style="swimlane;fontStyle=1;align=center;verticalAlign=middle;childLayout=stackLayout;horizontal=1;startSize=29;horizontalStack=0;resizeParent=1;resizeParentMax=0;resizeLast=0;collapsible=0;marginBottom=0;html=1;" parent="1" vertex="1">
                    <mxGeometry x="560" y="557" width="120" height="79" as="geometry"/>
                </mxCell>
                <mxCell id="33" value="concreate" style="text;html=1;strokeColor=none;fillColor=none;align=center;verticalAlign=middle;spacingLeft=4;spacingRight=4;overflow=hidden;rotatable=0;points=[[0,0.5],[1,0.5]];portConstraint=eastwest;" parent="32" vertex="1">
                    <mxGeometry y="29" width="120" height="25" as="geometry"/>
                </mxCell>
                <mxCell id="34" value="fly()" style="text;html=1;strokeColor=none;fillColor=none;align=left;verticalAlign=middle;spacingLeft=4;spacingRight=4;overflow=hidden;rotatable=0;points=[[0,0.5],[1,0.5]];portConstraint=eastwest;" parent="32" vertex="1">
                    <mxGeometry y="54" width="120" height="25" as="geometry"/>
                </mxCell>
                <mxCell id="35" value="FlyNoWay" style="swimlane;fontStyle=1;align=center;verticalAlign=middle;childLayout=stackLayout;horizontal=1;startSize=29;horizontalStack=0;resizeParent=1;resizeParentMax=0;resizeLast=0;collapsible=0;marginBottom=0;html=1;" parent="1" vertex="1">
                    <mxGeometry x="720" y="557" width="120" height="79" as="geometry"/>
                </mxCell>
                <mxCell id="36" value="concreate" style="text;html=1;strokeColor=none;fillColor=none;align=center;verticalAlign=middle;spacingLeft=4;spacingRight=4;overflow=hidden;rotatable=0;points=[[0,0.5],[1,0.5]];portConstraint=eastwest;" parent="35" vertex="1">
                    <mxGeometry y="29" width="120" height="25" as="geometry"/>
                </mxCell>
                <mxCell id="37" value="fly()" style="text;html=1;strokeColor=none;fillColor=none;align=left;verticalAlign=middle;spacingLeft=4;spacingRight=4;overflow=hidden;rotatable=0;points=[[0,0.5],[1,0.5]];portConstraint=eastwest;" parent="35" vertex="1">
                    <mxGeometry y="54" width="120" height="25" as="geometry"/>
                </mxCell>
                <mxCell id="39" value="" style="edgeStyle=none;shape=arrow;html=1;entryX=0.477;entryY=1.073;entryDx=0;entryDy=0;exitX=0.5;exitY=0;exitDx=0;exitDy=0;entryPerimeter=0;" parent="1" source="32" target="28" edge="1">
                    <mxGeometry relative="1" as="geometry">
                        <mxPoint x="810" y="567" as="sourcePoint"/>
                        <mxPoint x="704.8199999999999" y="488.82500000000005" as="targetPoint"/>
                    </mxGeometry>
                </mxCell>
                <mxCell id="40" value="" style="edgeStyle=none;shape=arrow;html=1;entryX=0.463;entryY=0.993;entryDx=0;entryDy=0;exitX=0.5;exitY=0;exitDx=0;exitDy=0;entryPerimeter=0;" parent="1" source="47" target="43" edge="1">
                    <mxGeometry relative="1" as="geometry"/>
                </mxCell>
                <mxCell id="41" value="QuackBehavior" style="swimlane;fontStyle=1;align=center;verticalAlign=middle;childLayout=stackLayout;horizontal=1;startSize=29;horizontalStack=0;resizeParent=1;resizeParentMax=0;resizeLast=0;collapsible=0;marginBottom=0;html=1;" parent="1" vertex="1">
                    <mxGeometry x="570" y="30" width="140" height="79" as="geometry"/>
                </mxCell>
                <mxCell id="42" value="interface" style="text;html=1;strokeColor=none;fillColor=none;align=center;verticalAlign=middle;spacingLeft=4;spacingRight=4;overflow=hidden;rotatable=0;points=[[0,0.5],[1,0.5]];portConstraint=eastwest;" parent="41" vertex="1">
                    <mxGeometry y="29" width="140" height="25" as="geometry"/>
                </mxCell>
                <mxCell id="43" value="quack() {abstract}" style="text;html=1;strokeColor=none;fillColor=none;align=left;verticalAlign=middle;spacingLeft=4;spacingRight=4;overflow=hidden;rotatable=0;points=[[0,0.5],[1,0.5]];portConstraint=eastwest;" parent="41" vertex="1">
                    <mxGeometry y="54" width="140" height="25" as="geometry"/>
                </mxCell>
                <mxCell id="44" value="Quack" style="swimlane;fontStyle=1;align=center;verticalAlign=middle;childLayout=stackLayout;horizontal=1;startSize=29;horizontalStack=0;resizeParent=1;resizeParentMax=0;resizeLast=0;collapsible=0;marginBottom=0;html=1;" parent="1" vertex="1">
                    <mxGeometry x="440" y="187" width="120" height="79" as="geometry"/>
                </mxCell>
                <mxCell id="45" value="concreate" style="text;html=1;strokeColor=none;fillColor=none;align=center;verticalAlign=middle;spacingLeft=4;spacingRight=4;overflow=hidden;rotatable=0;points=[[0,0.5],[1,0.5]];portConstraint=eastwest;" parent="44" vertex="1">
                    <mxGeometry y="29" width="120" height="25" as="geometry"/>
                </mxCell>
                <mxCell id="46" value="quack()" style="text;html=1;strokeColor=none;fillColor=none;align=left;verticalAlign=middle;spacingLeft=4;spacingRight=4;overflow=hidden;rotatable=0;points=[[0,0.5],[1,0.5]];portConstraint=eastwest;" parent="44" vertex="1">
                    <mxGeometry y="54" width="120" height="25" as="geometry"/>
                </mxCell>
                <mxCell id="47" value="MuteQuack" style="swimlane;fontStyle=1;align=center;verticalAlign=middle;childLayout=stackLayout;horizontal=1;startSize=29;horizontalStack=0;resizeParent=1;resizeParentMax=0;resizeLast=0;collapsible=0;marginBottom=0;html=1;" parent="1" vertex="1">
                    <mxGeometry x="720" y="187" width="120" height="79" as="geometry"/>
                </mxCell>
                <mxCell id="48" value="concreate" style="text;html=1;strokeColor=none;fillColor=none;align=center;verticalAlign=middle;spacingLeft=4;spacingRight=4;overflow=hidden;rotatable=0;points=[[0,0.5],[1,0.5]];portConstraint=eastwest;" parent="47" vertex="1">
                    <mxGeometry y="29" width="120" height="25" as="geometry"/>
                </mxCell>
                <mxCell id="49" value="quack()" style="text;html=1;strokeColor=none;fillColor=none;align=left;verticalAlign=middle;spacingLeft=4;spacingRight=4;overflow=hidden;rotatable=0;points=[[0,0.5],[1,0.5]];portConstraint=eastwest;" parent="47" vertex="1">
                    <mxGeometry y="54" width="120" height="25" as="geometry"/>
                </mxCell>
                <mxCell id="50" value="" style="edgeStyle=none;shape=arrow;html=1;entryX=0.477;entryY=1.073;entryDx=0;entryDy=0;exitX=0.5;exitY=0;exitDx=0;exitDy=0;entryPerimeter=0;" parent="1" source="44" target="43" edge="1">
                    <mxGeometry relative="1" as="geometry">
                        <mxPoint x="810" y="197" as="sourcePoint"/>
                        <mxPoint x="704.8199999999999" y="118.82500000000005" as="targetPoint"/>
                    </mxGeometry>
                </mxCell>
                <mxCell id="54" value="" style="edgeStyle=none;shape=arrow;html=1;exitX=0.5;exitY=0;exitDx=0;exitDy=0;entryX=0.499;entryY=1.113;entryDx=0;entryDy=0;entryPerimeter=0;" parent="1" source="51" target="43" edge="1">
                    <mxGeometry relative="1" as="geometry">
                        <mxPoint x="640" y="110" as="targetPoint"/>
                        <mxPoint x="670" y="170" as="sourcePoint"/>
                    </mxGeometry>
                </mxCell>
                <mxCell id="51" value="Squeak" style="swimlane;fontStyle=1;align=center;verticalAlign=middle;childLayout=stackLayout;horizontal=1;startSize=29;horizontalStack=0;resizeParent=1;resizeParentMax=0;resizeLast=0;collapsible=0;marginBottom=0;html=1;" parent="1" vertex="1">
                    <mxGeometry x="580" y="187" width="120" height="79" as="geometry"/>
                </mxCell>
                <mxCell id="52" value="concreate" style="text;html=1;strokeColor=none;fillColor=none;align=center;verticalAlign=middle;spacingLeft=4;spacingRight=4;overflow=hidden;rotatable=0;points=[[0,0.5],[1,0.5]];portConstraint=eastwest;" parent="51" vertex="1">
                    <mxGeometry y="29" width="120" height="25" as="geometry"/>
                </mxCell>
                <mxCell id="53" value="quack()" style="text;html=1;strokeColor=none;fillColor=none;align=left;verticalAlign=middle;spacingLeft=4;spacingRight=4;overflow=hidden;rotatable=0;points=[[0,0.5],[1,0.5]];portConstraint=eastwest;" parent="51" vertex="1">
                    <mxGeometry y="54" width="120" height="25" as="geometry"/>
                </mxCell>
                <mxCell id="55" value="" style="endArrow=classic;html=1;exitX=1;exitY=0.5;exitDx=0;exitDy=0;entryX=0;entryY=0.25;entryDx=0;entryDy=0;" parent="1" source="6" target="26" edge="1">
                    <mxGeometry width="50" height="50" relative="1" as="geometry">
                        <mxPoint x="400" y="460" as="sourcePoint"/>
                        <mxPoint x="600" y="350" as="targetPoint"/>
                    </mxGeometry>
                </mxCell>
                <mxCell id="56" value="" style="endArrow=classic;html=1;exitX=1;exitY=0.5;exitDx=0;exitDy=0;entryX=0;entryY=0.25;entryDx=0;entryDy=0;" parent="1" source="4" target="41" edge="1">
                    <mxGeometry width="50" height="50" relative="1" as="geometry">
                        <mxPoint x="370" y="175" as="sourcePoint"/>
                        <mxPoint x="560" y="60" as="targetPoint"/>
                    </mxGeometry>
                </mxCell>
            </root>
        </mxGraphModel>
    </diagram>
    <diagram id="SUP1asOqIllWdk1ZQvld" name="actionGame">
        <mxGraphModel dx="553" dy="1180" grid="1" gridSize="10" guides="1" tooltips="1" connect="1" arrows="1" fold="1" page="1" pageScale="1" pageWidth="850" pageHeight="1100" math="0" shadow="0">
            <root>
                <mxCell id="FtUsIOzg6ZiFX8PkNs-J-0"/>
                <mxCell id="FtUsIOzg6ZiFX8PkNs-J-1" parent="FtUsIOzg6ZiFX8PkNs-J-0"/>
                <mxCell id="5q2N4EW3rgL2drmj5KT_-0" value="&lt;b&gt;Character&lt;/b&gt;&lt;br&gt;{abstract}" style="swimlane;fontStyle=0;align=center;verticalAlign=top;childLayout=stackLayout;horizontal=1;startSize=55;horizontalStack=0;resizeParent=1;resizeParentMax=0;resizeLast=0;collapsible=0;marginBottom=0;html=1;" vertex="1" parent="FtUsIOzg6ZiFX8PkNs-J-1">
                    <mxGeometry x="120" y="160" width="240" height="230" as="geometry"/>
                </mxCell>
                <mxCell id="5q2N4EW3rgL2drmj5KT_-1" value="attributes" style="text;html=1;strokeColor=none;fillColor=none;align=center;verticalAlign=middle;spacingLeft=4;spacingRight=4;overflow=hidden;rotatable=0;points=[[0,0.5],[1,0.5]];portConstraint=eastwest;" vertex="1" parent="5q2N4EW3rgL2drmj5KT_-0">
                    <mxGeometry y="55" width="240" height="20" as="geometry"/>
                </mxCell>
                <mxCell id="5q2N4EW3rgL2drmj5KT_-2" value="WeaponBehavior weapon_behavior" style="text;html=1;strokeColor=none;fillColor=none;align=left;verticalAlign=middle;spacingLeft=4;spacingRight=4;overflow=hidden;rotatable=0;points=[[0,0.5],[1,0.5]];portConstraint=eastwest;" vertex="1" parent="5q2N4EW3rgL2drmj5KT_-0">
                    <mxGeometry y="75" width="240" height="20" as="geometry"/>
                </mxCell>
                <mxCell id="5q2N4EW3rgL2drmj5KT_-3" value="" style="line;strokeWidth=1;fillColor=none;align=left;verticalAlign=middle;spacingTop=-1;spacingLeft=3;spacingRight=3;rotatable=0;labelPosition=right;points=[];portConstraint=eastwest;" vertex="1" parent="5q2N4EW3rgL2drmj5KT_-0">
                    <mxGeometry y="95" width="240" height="8" as="geometry"/>
                </mxCell>
                <mxCell id="5q2N4EW3rgL2drmj5KT_-4" value="methods" style="text;html=1;strokeColor=none;fillColor=none;align=center;verticalAlign=middle;spacingLeft=4;spacingRight=4;overflow=hidden;rotatable=0;points=[[0,0.5],[1,0.5]];portConstraint=eastwest;" vertex="1" parent="5q2N4EW3rgL2drmj5KT_-0">
                    <mxGeometry y="103" width="240" height="20" as="geometry"/>
                </mxCell>
                <mxCell id="5q2N4EW3rgL2drmj5KT_-5" value="fight {abstract}&lt;br&gt;setWeapon(WeaponBehavior wb)&lt;br&gt;" style="text;html=1;strokeColor=none;fillColor=none;align=left;verticalAlign=middle;spacingLeft=4;spacingRight=4;overflow=hidden;rotatable=0;points=[[0,0.5],[1,0.5]];portConstraint=eastwest;" vertex="1" parent="5q2N4EW3rgL2drmj5KT_-0">
                    <mxGeometry y="123" width="240" height="107" as="geometry"/>
                </mxCell>
                <mxCell id="5q2N4EW3rgL2drmj5KT_-6" style="edgeStyle=none;html=1;entryX=0.081;entryY=1.023;entryDx=0;entryDy=0;entryPerimeter=0;exitX=0.5;exitY=0;exitDx=0;exitDy=0;shape=arrow;" edge="1" parent="FtUsIOzg6ZiFX8PkNs-J-1" source="5q2N4EW3rgL2drmj5KT_-7" target="5q2N4EW3rgL2drmj5KT_-5">
                    <mxGeometry relative="1" as="geometry"/>
                </mxCell>
                <mxCell id="5q2N4EW3rgL2drmj5KT_-7" value="Queen" style="swimlane;fontStyle=1;align=center;verticalAlign=middle;childLayout=stackLayout;horizontal=1;startSize=29;horizontalStack=0;resizeParent=1;resizeParentMax=0;resizeLast=0;collapsible=0;marginBottom=0;html=1;" vertex="1" parent="FtUsIOzg6ZiFX8PkNs-J-1">
                    <mxGeometry x="20" y="560" width="140" height="79" as="geometry"/>
                </mxCell>
                <mxCell id="5q2N4EW3rgL2drmj5KT_-8" value="methods" style="text;html=1;strokeColor=none;fillColor=none;align=center;verticalAlign=middle;spacingLeft=4;spacingRight=4;overflow=hidden;rotatable=0;points=[[0,0.5],[1,0.5]];portConstraint=eastwest;" vertex="1" parent="5q2N4EW3rgL2drmj5KT_-7">
                    <mxGeometry y="29" width="140" height="25" as="geometry"/>
                </mxCell>
                <mxCell id="5q2N4EW3rgL2drmj5KT_-9" value="fight() {concrete}" style="text;html=1;strokeColor=none;fillColor=none;align=left;verticalAlign=middle;spacingLeft=4;spacingRight=4;overflow=hidden;rotatable=0;points=[[0,0.5],[1,0.5]];portConstraint=eastwest;" vertex="1" parent="5q2N4EW3rgL2drmj5KT_-7">
                    <mxGeometry y="54" width="140" height="25" as="geometry"/>
                </mxCell>
                <mxCell id="5q2N4EW3rgL2drmj5KT_-10" value="King" style="swimlane;fontStyle=1;align=center;verticalAlign=middle;childLayout=stackLayout;horizontal=1;startSize=29;horizontalStack=0;resizeParent=1;resizeParentMax=0;resizeLast=0;collapsible=0;marginBottom=0;html=1;" vertex="1" parent="FtUsIOzg6ZiFX8PkNs-J-1">
                    <mxGeometry x="170" y="560" width="140" height="79" as="geometry"/>
                </mxCell>
                <mxCell id="5q2N4EW3rgL2drmj5KT_-11" value="methods" style="text;html=1;strokeColor=none;fillColor=none;align=center;verticalAlign=middle;spacingLeft=4;spacingRight=4;overflow=hidden;rotatable=0;points=[[0,0.5],[1,0.5]];portConstraint=eastwest;" vertex="1" parent="5q2N4EW3rgL2drmj5KT_-10">
                    <mxGeometry y="29" width="140" height="25" as="geometry"/>
                </mxCell>
                <mxCell id="5q2N4EW3rgL2drmj5KT_-12" value="fight() {concrete}" style="text;html=1;strokeColor=none;fillColor=none;align=left;verticalAlign=middle;spacingLeft=4;spacingRight=4;overflow=hidden;rotatable=0;points=[[0,0.5],[1,0.5]];portConstraint=eastwest;" vertex="1" parent="5q2N4EW3rgL2drmj5KT_-10">
                    <mxGeometry y="54" width="140" height="25" as="geometry"/>
                </mxCell>
                <mxCell id="5q2N4EW3rgL2drmj5KT_-13" value="Knight" style="swimlane;fontStyle=1;align=center;verticalAlign=middle;childLayout=stackLayout;horizontal=1;startSize=29;horizontalStack=0;resizeParent=1;resizeParentMax=0;resizeLast=0;collapsible=0;marginBottom=0;html=1;" vertex="1" parent="FtUsIOzg6ZiFX8PkNs-J-1">
                    <mxGeometry x="320" y="560" width="140" height="79" as="geometry"/>
                </mxCell>
                <mxCell id="5q2N4EW3rgL2drmj5KT_-14" value="methods" style="text;html=1;strokeColor=none;fillColor=none;align=center;verticalAlign=middle;spacingLeft=4;spacingRight=4;overflow=hidden;rotatable=0;points=[[0,0.5],[1,0.5]];portConstraint=eastwest;" vertex="1" parent="5q2N4EW3rgL2drmj5KT_-13">
                    <mxGeometry y="29" width="140" height="25" as="geometry"/>
                </mxCell>
                <mxCell id="5q2N4EW3rgL2drmj5KT_-15" value="fight() {concrete}" style="text;html=1;strokeColor=none;fillColor=none;align=left;verticalAlign=middle;spacingLeft=4;spacingRight=4;overflow=hidden;rotatable=0;points=[[0,0.5],[1,0.5]];portConstraint=eastwest;" vertex="1" parent="5q2N4EW3rgL2drmj5KT_-13">
                    <mxGeometry y="54" width="140" height="25" as="geometry"/>
                </mxCell>
                <mxCell id="5q2N4EW3rgL2drmj5KT_-16" style="edgeStyle=none;html=1;exitX=0.5;exitY=0;exitDx=0;exitDy=0;shape=arrow;entryX=0.51;entryY=1.023;entryDx=0;entryDy=0;entryPerimeter=0;" edge="1" parent="FtUsIOzg6ZiFX8PkNs-J-1" source="5q2N4EW3rgL2drmj5KT_-10" target="5q2N4EW3rgL2drmj5KT_-5">
                    <mxGeometry relative="1" as="geometry">
                        <mxPoint x="120" y="570" as="sourcePoint"/>
                        <mxPoint x="240" y="410" as="targetPoint"/>
                    </mxGeometry>
                </mxCell>
                <mxCell id="5q2N4EW3rgL2drmj5KT_-17" style="edgeStyle=none;html=1;entryX=0.91;entryY=1.023;entryDx=0;entryDy=0;entryPerimeter=0;exitX=0.5;exitY=0;exitDx=0;exitDy=0;shape=arrow;" edge="1" parent="FtUsIOzg6ZiFX8PkNs-J-1" source="5q2N4EW3rgL2drmj5KT_-13" target="5q2N4EW3rgL2drmj5KT_-5">
                    <mxGeometry relative="1" as="geometry">
                        <mxPoint x="100" y="570" as="sourcePoint"/>
                        <mxPoint x="249.76" y="421.81899999999996" as="targetPoint"/>
                    </mxGeometry>
                </mxCell>
                <mxCell id="5q2N4EW3rgL2drmj5KT_-18" value="" style="edgeStyle=none;shape=arrow;html=1;entryX=1;entryY=0.5;entryDx=0;entryDy=0;exitX=0.5;exitY=0;exitDx=0;exitDy=0;" edge="1" parent="FtUsIOzg6ZiFX8PkNs-J-1" source="5q2N4EW3rgL2drmj5KT_-25" target="5q2N4EW3rgL2drmj5KT_-21">
                    <mxGeometry relative="1" as="geometry"/>
                </mxCell>
                <mxCell id="5q2N4EW3rgL2drmj5KT_-19" value="WeaponBehavior" style="swimlane;fontStyle=1;align=center;verticalAlign=middle;childLayout=stackLayout;horizontal=1;startSize=29;horizontalStack=0;resizeParent=1;resizeParentMax=0;resizeLast=0;collapsible=0;marginBottom=0;html=1;" vertex="1" parent="FtUsIOzg6ZiFX8PkNs-J-1">
                    <mxGeometry x="570" y="120" width="140" height="79" as="geometry"/>
                </mxCell>
                <mxCell id="5q2N4EW3rgL2drmj5KT_-20" value="interface" style="text;html=1;strokeColor=none;fillColor=none;align=center;verticalAlign=middle;spacingLeft=4;spacingRight=4;overflow=hidden;rotatable=0;points=[[0,0.5],[1,0.5]];portConstraint=eastwest;" vertex="1" parent="5q2N4EW3rgL2drmj5KT_-19">
                    <mxGeometry y="29" width="140" height="25" as="geometry"/>
                </mxCell>
                <mxCell id="5q2N4EW3rgL2drmj5KT_-21" value="useWeapon() {abstract}" style="text;html=1;strokeColor=none;fillColor=none;align=left;verticalAlign=middle;spacingLeft=4;spacingRight=4;overflow=hidden;rotatable=0;points=[[0,0.5],[1,0.5]];portConstraint=eastwest;" vertex="1" parent="5q2N4EW3rgL2drmj5KT_-19">
                    <mxGeometry y="54" width="140" height="25" as="geometry"/>
                </mxCell>
                <mxCell id="5q2N4EW3rgL2drmj5KT_-22" value="KnifeBehavior" style="swimlane;fontStyle=1;align=center;verticalAlign=middle;childLayout=stackLayout;horizontal=1;startSize=29;horizontalStack=0;resizeParent=1;resizeParentMax=0;resizeLast=0;collapsible=0;marginBottom=0;html=1;" vertex="1" parent="FtUsIOzg6ZiFX8PkNs-J-1">
                    <mxGeometry x="440" y="277" width="120" height="79" as="geometry"/>
                </mxCell>
                <mxCell id="5q2N4EW3rgL2drmj5KT_-23" value="concreate" style="text;html=1;strokeColor=none;fillColor=none;align=center;verticalAlign=middle;spacingLeft=4;spacingRight=4;overflow=hidden;rotatable=0;points=[[0,0.5],[1,0.5]];portConstraint=eastwest;" vertex="1" parent="5q2N4EW3rgL2drmj5KT_-22">
                    <mxGeometry y="29" width="120" height="25" as="geometry"/>
                </mxCell>
                <mxCell id="5q2N4EW3rgL2drmj5KT_-24" value="useWeapon()" style="text;html=1;strokeColor=none;fillColor=none;align=left;verticalAlign=middle;spacingLeft=4;spacingRight=4;overflow=hidden;rotatable=0;points=[[0,0.5],[1,0.5]];portConstraint=eastwest;" vertex="1" parent="5q2N4EW3rgL2drmj5KT_-22">
                    <mxGeometry y="54" width="120" height="25" as="geometry"/>
                </mxCell>
                <mxCell id="5q2N4EW3rgL2drmj5KT_-25" value="AxeBehavior" style="swimlane;fontStyle=1;align=center;verticalAlign=middle;childLayout=stackLayout;horizontal=1;startSize=29;horizontalStack=0;resizeParent=1;resizeParentMax=0;resizeLast=0;collapsible=0;marginBottom=0;html=1;" vertex="1" parent="FtUsIOzg6ZiFX8PkNs-J-1">
                    <mxGeometry x="720" y="277" width="120" height="79" as="geometry"/>
                </mxCell>
                <mxCell id="5q2N4EW3rgL2drmj5KT_-26" value="concreate" style="text;html=1;strokeColor=none;fillColor=none;align=center;verticalAlign=middle;spacingLeft=4;spacingRight=4;overflow=hidden;rotatable=0;points=[[0,0.5],[1,0.5]];portConstraint=eastwest;" vertex="1" parent="5q2N4EW3rgL2drmj5KT_-25">
                    <mxGeometry y="29" width="120" height="25" as="geometry"/>
                </mxCell>
                <mxCell id="5q2N4EW3rgL2drmj5KT_-27" value="useWeapon()" style="text;html=1;strokeColor=none;fillColor=none;align=left;verticalAlign=middle;spacingLeft=4;spacingRight=4;overflow=hidden;rotatable=0;points=[[0,0.5],[1,0.5]];portConstraint=eastwest;" vertex="1" parent="5q2N4EW3rgL2drmj5KT_-25">
                    <mxGeometry y="54" width="120" height="25" as="geometry"/>
                </mxCell>
                <mxCell id="5q2N4EW3rgL2drmj5KT_-28" value="" style="edgeStyle=none;shape=arrow;html=1;entryX=0;entryY=0.5;entryDx=0;entryDy=0;exitX=0.5;exitY=0;exitDx=0;exitDy=0;" edge="1" parent="FtUsIOzg6ZiFX8PkNs-J-1" source="5q2N4EW3rgL2drmj5KT_-22" target="5q2N4EW3rgL2drmj5KT_-21">
                    <mxGeometry relative="1" as="geometry">
                        <mxPoint x="810" y="287" as="sourcePoint"/>
                        <mxPoint x="704.8199999999999" y="208.82500000000005" as="targetPoint"/>
                    </mxGeometry>
                </mxCell>
                <mxCell id="5q2N4EW3rgL2drmj5KT_-29" value="" style="edgeStyle=none;shape=arrow;html=1;exitX=0.5;exitY=0;exitDx=0;exitDy=0;" edge="1" parent="FtUsIOzg6ZiFX8PkNs-J-1" source="5q2N4EW3rgL2drmj5KT_-30">
                    <mxGeometry relative="1" as="geometry">
                        <mxPoint x="640" y="200" as="targetPoint"/>
                        <mxPoint x="670" y="260" as="sourcePoint"/>
                    </mxGeometry>
                </mxCell>
                <mxCell id="5q2N4EW3rgL2drmj5KT_-30" value="BowAndArrow&lt;br&gt;Behavior" style="swimlane;fontStyle=1;align=center;verticalAlign=middle;childLayout=stackLayout;horizontal=1;startSize=29;horizontalStack=0;resizeParent=1;resizeParentMax=0;resizeLast=0;collapsible=0;marginBottom=0;html=1;" vertex="1" parent="FtUsIOzg6ZiFX8PkNs-J-1">
                    <mxGeometry x="580" y="277" width="120" height="79" as="geometry"/>
                </mxCell>
                <mxCell id="5q2N4EW3rgL2drmj5KT_-31" value="concreate" style="text;html=1;strokeColor=none;fillColor=none;align=center;verticalAlign=middle;spacingLeft=4;spacingRight=4;overflow=hidden;rotatable=0;points=[[0,0.5],[1,0.5]];portConstraint=eastwest;" vertex="1" parent="5q2N4EW3rgL2drmj5KT_-30">
                    <mxGeometry y="29" width="120" height="25" as="geometry"/>
                </mxCell>
                <mxCell id="5q2N4EW3rgL2drmj5KT_-32" value="useWeapon()" style="text;html=1;strokeColor=none;fillColor=none;align=left;verticalAlign=middle;spacingLeft=4;spacingRight=4;overflow=hidden;rotatable=0;points=[[0,0.5],[1,0.5]];portConstraint=eastwest;" vertex="1" parent="5q2N4EW3rgL2drmj5KT_-30">
                    <mxGeometry y="54" width="120" height="25" as="geometry"/>
                </mxCell>
                <mxCell id="5q2N4EW3rgL2drmj5KT_-33" value="" style="endArrow=classic;html=1;exitX=1;exitY=0.5;exitDx=0;exitDy=0;entryX=0;entryY=0.25;entryDx=0;entryDy=0;" edge="1" parent="FtUsIOzg6ZiFX8PkNs-J-1" source="5q2N4EW3rgL2drmj5KT_-2" target="5q2N4EW3rgL2drmj5KT_-19">
                    <mxGeometry width="50" height="50" relative="1" as="geometry">
                        <mxPoint x="370" y="175" as="sourcePoint"/>
                        <mxPoint x="560" y="60" as="targetPoint"/>
                    </mxGeometry>
                </mxCell>
                <mxCell id="5q2N4EW3rgL2drmj5KT_-34" value="Troll" style="swimlane;fontStyle=1;align=center;verticalAlign=middle;childLayout=stackLayout;horizontal=1;startSize=29;horizontalStack=0;resizeParent=1;resizeParentMax=0;resizeLast=0;collapsible=0;marginBottom=0;html=1;" vertex="1" parent="FtUsIOzg6ZiFX8PkNs-J-1">
                    <mxGeometry x="90" y="680" width="140" height="79" as="geometry"/>
                </mxCell>
                <mxCell id="5q2N4EW3rgL2drmj5KT_-35" value="methods" style="text;html=1;strokeColor=none;fillColor=none;align=center;verticalAlign=middle;spacingLeft=4;spacingRight=4;overflow=hidden;rotatable=0;points=[[0,0.5],[1,0.5]];portConstraint=eastwest;" vertex="1" parent="5q2N4EW3rgL2drmj5KT_-34">
                    <mxGeometry y="29" width="140" height="25" as="geometry"/>
                </mxCell>
                <mxCell id="5q2N4EW3rgL2drmj5KT_-36" value="fight() {concrete}" style="text;html=1;strokeColor=none;fillColor=none;align=left;verticalAlign=middle;spacingLeft=4;spacingRight=4;overflow=hidden;rotatable=0;points=[[0,0.5],[1,0.5]];portConstraint=eastwest;" vertex="1" parent="5q2N4EW3rgL2drmj5KT_-34">
                    <mxGeometry y="54" width="140" height="25" as="geometry"/>
                </mxCell>
                <mxCell id="5q2N4EW3rgL2drmj5KT_-37" value="Dragon" style="swimlane;fontStyle=1;align=center;verticalAlign=middle;childLayout=stackLayout;horizontal=1;startSize=29;horizontalStack=0;resizeParent=1;resizeParentMax=0;resizeLast=0;collapsible=0;marginBottom=0;html=1;" vertex="1" parent="FtUsIOzg6ZiFX8PkNs-J-1">
                    <mxGeometry x="250" y="680" width="140" height="79" as="geometry"/>
                </mxCell>
                <mxCell id="5q2N4EW3rgL2drmj5KT_-38" value="methods" style="text;html=1;strokeColor=none;fillColor=none;align=center;verticalAlign=middle;spacingLeft=4;spacingRight=4;overflow=hidden;rotatable=0;points=[[0,0.5],[1,0.5]];portConstraint=eastwest;" vertex="1" parent="5q2N4EW3rgL2drmj5KT_-37">
                    <mxGeometry y="29" width="140" height="25" as="geometry"/>
                </mxCell>
                <mxCell id="5q2N4EW3rgL2drmj5KT_-39" value="fight() {concrete}" style="text;html=1;strokeColor=none;fillColor=none;align=left;verticalAlign=middle;spacingLeft=4;spacingRight=4;overflow=hidden;rotatable=0;points=[[0,0.5],[1,0.5]];portConstraint=eastwest;" vertex="1" parent="5q2N4EW3rgL2drmj5KT_-37">
                    <mxGeometry y="54" width="140" height="25" as="geometry"/>
                </mxCell>
                <mxCell id="5q2N4EW3rgL2drmj5KT_-40" value="SwordBehavior" style="swimlane;fontStyle=1;align=center;verticalAlign=middle;childLayout=stackLayout;horizontal=1;startSize=29;horizontalStack=0;resizeParent=1;resizeParentMax=0;resizeLast=0;collapsible=0;marginBottom=0;html=1;" vertex="1" parent="FtUsIOzg6ZiFX8PkNs-J-1">
                    <mxGeometry x="500" y="400" width="120" height="79" as="geometry"/>
                </mxCell>
                <mxCell id="5q2N4EW3rgL2drmj5KT_-41" value="concreate" style="text;html=1;strokeColor=none;fillColor=none;align=center;verticalAlign=middle;spacingLeft=4;spacingRight=4;overflow=hidden;rotatable=0;points=[[0,0.5],[1,0.5]];portConstraint=eastwest;" vertex="1" parent="5q2N4EW3rgL2drmj5KT_-40">
                    <mxGeometry y="29" width="120" height="25" as="geometry"/>
                </mxCell>
                <mxCell id="5q2N4EW3rgL2drmj5KT_-42" value="useWeapon()" style="text;html=1;strokeColor=none;fillColor=none;align=left;verticalAlign=middle;spacingLeft=4;spacingRight=4;overflow=hidden;rotatable=0;points=[[0,0.5],[1,0.5]];portConstraint=eastwest;" vertex="1" parent="5q2N4EW3rgL2drmj5KT_-40">
                    <mxGeometry y="54" width="120" height="25" as="geometry"/>
                </mxCell>
                <mxCell id="5q2N4EW3rgL2drmj5KT_-43" value="FireBehavior" style="swimlane;fontStyle=1;align=center;verticalAlign=middle;childLayout=stackLayout;horizontal=1;startSize=29;horizontalStack=0;resizeParent=1;resizeParentMax=0;resizeLast=0;collapsible=0;marginBottom=0;html=1;" vertex="1" parent="FtUsIOzg6ZiFX8PkNs-J-1">
                    <mxGeometry x="660" y="400" width="120" height="79" as="geometry"/>
                </mxCell>
                <mxCell id="5q2N4EW3rgL2drmj5KT_-44" value="concreate" style="text;html=1;strokeColor=none;fillColor=none;align=center;verticalAlign=middle;spacingLeft=4;spacingRight=4;overflow=hidden;rotatable=0;points=[[0,0.5],[1,0.5]];portConstraint=eastwest;" vertex="1" parent="5q2N4EW3rgL2drmj5KT_-43">
                    <mxGeometry y="29" width="120" height="25" as="geometry"/>
                </mxCell>
                <mxCell id="5q2N4EW3rgL2drmj5KT_-45" value="useWeapon()" style="text;html=1;strokeColor=none;fillColor=none;align=left;verticalAlign=middle;spacingLeft=4;spacingRight=4;overflow=hidden;rotatable=0;points=[[0,0.5],[1,0.5]];portConstraint=eastwest;" vertex="1" parent="5q2N4EW3rgL2drmj5KT_-43">
                    <mxGeometry y="54" width="120" height="25" as="geometry"/>
                </mxCell>
                <mxCell id="5q2N4EW3rgL2drmj5KT_-46" value="" style="edgeStyle=none;shape=arrow;html=1;exitX=0.5;exitY=0;exitDx=0;exitDy=0;entryX=0.218;entryY=1.14;entryDx=0;entryDy=0;entryPerimeter=0;" edge="1" parent="FtUsIOzg6ZiFX8PkNs-J-1" source="5q2N4EW3rgL2drmj5KT_-40" target="5q2N4EW3rgL2drmj5KT_-21">
                    <mxGeometry relative="1" as="geometry">
                        <mxPoint x="510" y="287" as="sourcePoint"/>
                        <mxPoint x="646.78" y="210.82500000000005" as="targetPoint"/>
                    </mxGeometry>
                </mxCell>
                <mxCell id="5q2N4EW3rgL2drmj5KT_-47" value="" style="edgeStyle=none;shape=arrow;html=1;exitX=0.5;exitY=0;exitDx=0;exitDy=0;entryX=0.775;entryY=1.02;entryDx=0;entryDy=0;entryPerimeter=0;" edge="1" parent="FtUsIOzg6ZiFX8PkNs-J-1" source="5q2N4EW3rgL2drmj5KT_-43" target="5q2N4EW3rgL2drmj5KT_-21">
                    <mxGeometry relative="1" as="geometry">
                        <mxPoint x="570" y="410" as="sourcePoint"/>
                        <mxPoint x="645.3161592505855" y="209" as="targetPoint"/>
                    </mxGeometry>
                </mxCell>
                <mxCell id="5q2N4EW3rgL2drmj5KT_-48" style="edgeStyle=none;html=1;entryX=0.735;entryY=1.005;entryDx=0;entryDy=0;entryPerimeter=0;exitX=0.5;exitY=0;exitDx=0;exitDy=0;shape=arrow;" edge="1" parent="FtUsIOzg6ZiFX8PkNs-J-1" source="5q2N4EW3rgL2drmj5KT_-37" target="5q2N4EW3rgL2drmj5KT_-5">
                    <mxGeometry relative="1" as="geometry">
                        <mxPoint x="400" y="570" as="sourcePoint"/>
                        <mxPoint x="348.4000000000001" y="402.461" as="targetPoint"/>
                    </mxGeometry>
                </mxCell>
                <mxCell id="5q2N4EW3rgL2drmj5KT_-49" style="edgeStyle=none;html=1;entryX=0.273;entryY=1.014;entryDx=0;entryDy=0;entryPerimeter=0;exitX=0.5;exitY=0;exitDx=0;exitDy=0;shape=arrow;" edge="1" parent="FtUsIOzg6ZiFX8PkNs-J-1" source="5q2N4EW3rgL2drmj5KT_-34" target="5q2N4EW3rgL2drmj5KT_-5">
                    <mxGeometry relative="1" as="geometry">
                        <mxPoint x="330" y="690" as="sourcePoint"/>
                        <mxPoint x="306.4000000000001" y="400.5350000000001" as="targetPoint"/>
                    </mxGeometry>
                </mxCell>
            </root>
        </mxGraphModel>
    </diagram>
</mxfile>
